<?xml version="1.0" encoding="utf-8"?>
<!-- Generated by IcoMoon.io -->
<svg version="1.1" xmlns="http://www.w3.org/2000/svg" xmlns:xlink="http://www.w3.org/1999/xlink" width="32" height="868" viewBox="0 0 32 868">
<symbol id="icon-vscode" viewBox="0 0 32 32">
<path fill="#0065a9" d="M30.867 3.455l-6.593-3.175c-0.763-0.367-1.675-0.212-2.274 0.387l-21.584 19.68c-0.581 0.529-0.58 1.443 0.001 1.972l1.763 1.603c0.475 0.432 1.191 0.464 1.703 0.076l25.993-19.719c0.872-0.662 2.125-0.040 2.125 1.055v-0.077c0-0.768-0.44-1.469-1.132-1.802z"></path>
<path fill="#007acc" d="M30.867 28.545l-6.593 3.175c-0.763 0.367-1.675 0.212-2.274-0.387l-21.584-19.68c-0.581-0.529-0.58-1.443 0.001-1.972l1.763-1.603c0.475-0.432 1.191-0.464 1.703-0.076l25.993 19.719c0.872 0.662 2.125 0.040 2.125-1.055v0.077c0 0.768-0.44 1.469-1.132 1.802z"></path>
<path fill="#1f9cf0" d="M24.274 31.72c-0.763 0.367-1.675 0.212-2.274-0.387 0.738 0.738 2 0.215 2-0.829v-29.010c0-1.044-1.262-1.566-2-0.828 0.599-0.599 1.511-0.754 2.274-0.387l6.592 3.17c0.693 0.333 1.133 1.034 1.133 1.802v21.496c0 0.769-0.441 1.469-1.133 1.802l-6.592 3.17z"></path>
<path fill="#000" opacity="0.25" d="M22.672 31.782c0.504 0.196 1.079 0.184 1.587-0.061l6.588-3.17c0.692-0.333 1.133-1.034 1.133-1.802v-21.496c0-0.769-0.44-1.469-1.133-1.802l-6.588-3.17c-0.668-0.321-1.449-0.243-2.035 0.183-0.084 0.061-0.163 0.129-0.238 0.204l-12.612 11.507-5.494-4.17c-0.511-0.388-1.227-0.356-1.702 0.076l-1.762 1.603c-0.581 0.528-0.582 1.443-0.001 1.972l4.764 4.347-4.764 4.347c-0.58 0.529-0.58 1.443 0.001 1.972l1.762 1.603c0.475 0.432 1.19 0.464 1.702 0.076l5.494-4.17 12.612 11.507c0.2 0.2 0.434 0.35 0.686 0.448zM23.985 8.736l-9.57 7.264 9.57 7.264v-14.529z"></path>
</symbol>
<symbol id="icon-markdown" viewBox="0 0 53 32">
<path fill="#1f90ff" d="M49.487 32h-45.641c-1.020 0-1.998-0.395-2.72-1.098s-1.127-1.657-1.127-2.651v-24.5c0-0.995 0.405-1.948 1.127-2.652s1.7-1.098 2.72-1.098h45.641c1.020 0 1.998 0.395 2.72 1.098s1.126 1.657 1.126 2.652v24.5c0 0.994-0.405 1.948-1.126 2.651s-1.7 1.098-2.72 1.098zM12.82 24.5v-9.75l5.128 6.25 5.128-6.25v9.75h5.128v-17h-5.128l-5.128 6.25-5.128-6.25h-5.128v17h5.128zM47.179 16h-5.128v-8.5h-5.128v8.5h-5.128l7.692 8.75 7.692-8.75z"></path>
</symbol>
<symbol id="icon-js" viewBox="0 0 32 32">
<path fill="#f7df1e" d="M0 0h32v32h-32v-32z"></path>
<path fill="#000" d="M21.496 25c0.645 1.052 1.483 1.826 2.966 1.826 1.246 0 2.042-0.623 2.042-1.483 0-1.031-0.818-1.396-2.189-1.996l-0.752-0.323c-2.17-0.924-3.611-2.083-3.611-4.531 0-2.255 1.718-3.972 4.404-3.972 1.912 0 3.286 0.665 4.277 2.408l-2.342 1.503c-0.516-0.924-1.072-1.289-1.935-1.289-0.881 0-1.439 0.559-1.439 1.289 0 0.902 0.559 1.267 1.849 1.826l0.752 0.322c2.555 1.096 3.997 2.213 3.997 4.724 0 2.707-2.127 4.19-4.983 4.19-2.793 0-4.597-1.331-5.48-3.075zM10.873 25.261c0.472 0.838 0.902 1.547 1.935 1.547 0.988 0 1.611-0.387 1.611-1.89v-10.225h3.007v10.265c0 3.114-1.826 4.531-4.49 4.531-2.408 0-3.802-1.246-4.511-2.747z"></path>
</symbol>
<symbol id="icon-html" viewBox="0 0 32 32">
<path fill="#dd512a" d="M0.555 0c-0.334 0-0.582 0.24-0.553 0.533l2.814 27.811c0.030 0.293 0.317 0.597 0.639 0.675l11.94 2.922c0.322 0.079 0.848 0.079 1.17 0l11.976-2.926c0.322-0.079 0.609-0.383 0.639-0.675l2.818-27.807c0.030-0.293-0.219-0.533-0.553-0.533h-30.89zM26.005 6.378c-0.027 0.261-0.073 0.715-0.102 1.008l-0.074 0.73c-0.030 0.293-0.072 0.712-0.095 0.931s-0.044 0.398-0.047 0.398c-0.004 0-0.28 0-0.614 0h-8.466c-0.334 0-0.61 0-0.613 0s-0.28 0-0.614 0h-4.459c-0.334 0-0.582 0.24-0.553 0.533l0.26 2.562c0.030 0.293 0.327 0.533 0.661 0.533h4.091c0.334 0 0.61 0 0.614 0s0.28 0 0.613 0h7.032c0.334 0 0.85 0 1.148 0s0.519 0.214 0.492 0.475c-0.027 0.261-0.073 0.715-0.103 1.008l-0.836 8.259c-0.030 0.293-0.068 0.667-0.084 0.832s-0.293 0.363-0.615 0.442l-7.055 1.724c-0.322 0.078-0.589 0.144-0.594 0.145s-0.272-0.063-0.594-0.141l-7.063-1.727c-0.322-0.079-0.609-0.383-0.639-0.676l-0.455-4.497c-0.030-0.293 0.219-0.533 0.553-0.533h0.645c0.334 0 0.88 0 1.214 0h0.961c0.334 0 0.631 0.24 0.661 0.533l0.178 1.76c0.030 0.293 0.317 0.595 0.64 0.672l3.304 0.786c0.322 0.077 0.587 0.139 0.588 0.139s0.266-0.063 0.588-0.14l3.31-0.788c0.322-0.077 0.61-0.379 0.64-0.672l0.359-3.527c0.030-0.293-0.219-0.533-0.553-0.533h-3.722c-0.334 0-0.61 0-0.613 0s-0.28 0-0.614 0h-7.766c-0.334 0-0.631-0.24-0.661-0.533l-0.881-8.695c-0.030-0.293-0.076-0.746-0.102-1.008s0.225-0.475 0.559-0.475h8.851c0.334 0 0.61 0 0.614 0s0.28 0 0.613 0h8.84c0.334-0 0.585 0.214 0.559 0.475z"></path>
</symbol>
<symbol id="icon-css" viewBox="0 0 32 32">
<path fill="#2196f3" d="M4.55 28.8l-2.55-28.8h28l-2.554 28.802-11.446 3.198-11.45-3.2zM24.226 13.036l0.322-3.618 0.316-3.53h-17.728l0.23 3.338 13.68-0.038-0.264 3.588-13.066 0.154 0.352 3.352 12.416-0.034-0.538 4.902-3.95 1.066-3.942-1.064-0.264-2.942h-3.552l0.506 5.672 7.256 2.006 7.254-2.006 0.972-10.846z"></path>
</symbol>
<symbol id="icon-minimize" viewBox="0 0 20 20" fill="currentColor">
<path d="M16 10c0 0.553-0.048 1-0.601 1h-10.798c-0.552 0-0.601-0.447-0.601-1s0.049-1 0.601-1h10.799c0.552 0 0.6 0.447 0.6 1z"></path>
</symbol>
<symbol id="icon-maximize" viewBox="0 0 20 20" fill="currentColor">
<path d="M6 6v-4c0-1.1 0.9-2 2-2h10c1.105 0 2 0.895 2 2v0 10c0 1.105-0.895 2-2 2v0h-4v4c0 1.105-0.895 2-2 2v0h-10c-1.105 0-2-0.895-2-2v0-10c0-1.1 0.9-2 2-2h4zM8 6h4c1.105 0 2 0.895 2 2v0 4h4v-10h-10v4zM2 8v10h10v-10h-10z"></path>
</symbol>
<symbol id="icon-close" viewBox="0 0 20 20" fill="currentColor">
<path d="M10 8.586l-7.071-7.071-1.414 1.414 7.071 7.071-7.071 7.071 1.414 1.414 7.071-7.071 7.071 7.071 1.414-1.414-7.071-7.071 7.071-7.071-1.414-1.414-7.071 7.071z"></path>
</symbol>
<symbol id="icon-three-dots" viewBox="0 0 20 20" fill="currentColor">
<path d="M10.001 7.8c-1.215 0-2.201 0.985-2.201 2.2s0.986 2.2 2.201 2.2c1.215 0 2.199-0.985 2.199-2.2s-0.984-2.2-2.199-2.2zM3.001 7.8c-1.215 0-2.201 0.985-2.201 2.2s0.986 2.2 2.201 2.2c1.215 0 2.199-0.986 2.199-2.2s-0.984-2.2-2.199-2.2zM17.001 7.8c-1.215 0-2.201 0.985-2.201 2.2s0.986 2.2 2.201 2.2c1.215 0 2.199-0.985 2.199-2.2s-0.984-2.2-2.199-2.2z"></path>
</symbol>
<symbol id="icon-arrow" viewBox="0 0 24 24" fill="currentColor">
<path d="M8.578 16.594l4.594-4.594-4.594-4.594 1.406-1.406 6 6-6 6z"></path>
</symbol>
<symbol id="icon-file" viewBox="0 0 28 32" fill="currentColor">
<path d="M22 0h-12l-2 2v6h-6l-2 2v20.093l2 1.907h16.093l1.907-1.907v-6.093h6.267l1.733-1.907v-16.093l-6-6zM22 2.827l3.173 3.173h-3.173v-3.173zM18 30h-16v-20h6v12.093l2 1.907h8v6zM26 22h-16v-20h10v6h6v14z"></path>
</symbol>
<symbol id="icon-github" viewBox="0 0 32 32" fill="currentColor">
<path d="M16 0.395c-8.836 0-16 7.163-16 16 0 7.069 4.585 13.067 10.942 15.182 0.8 0.148 1.094-0.347 1.094-0.77 0-0.381-0.015-1.642-0.022-2.979-4.452 0.968-5.391-1.888-5.391-1.888-0.728-1.849-1.776-2.341-1.776-2.341-1.452-0.993 0.11-0.973 0.11-0.973 1.606 0.113 2.452 1.649 2.452 1.649 1.427 2.446 3.743 1.739 4.656 1.33 0.143-1.034 0.558-1.74 1.016-2.14-3.554-0.404-7.29-1.777-7.29-7.907 0-1.747 0.625-3.174 1.649-4.295-0.166-0.403-0.714-2.030 0.155-4.234 0 0 1.344-0.43 4.401 1.64 1.276-0.355 2.645-0.532 4.005-0.539 1.359 0.006 2.729 0.184 4.008 0.539 3.054-2.070 4.395-1.64 4.395-1.64 0.871 2.204 0.323 3.831 0.157 4.234 1.026 1.12 1.647 2.548 1.647 4.295 0 6.145-3.743 7.498-7.306 7.895 0.574 0.497 1.085 1.47 1.085 2.963 0 2.141-0.019 3.864-0.019 4.391 0 0.426 0.288 0.925 1.099 0.768 6.354-2.118 10.933-8.113 10.933-15.18 0-8.837-7.164-16-16-16z"></path>
</symbol>
<symbol id="icon-linkedin" viewBox="0 0 32 32" fill="currentColor">
<path d="M12 12h5.535v2.837h0.079c0.77-1.381 2.655-2.837 5.464-2.837 5.842 0 6.922 3.637 6.922 8.367v9.633h-5.769v-8.54c0-2.037-0.042-4.657-3.001-4.657-3.005 0-3.463 2.218-3.463 4.509v8.688h-5.767v-18z"></path>
<path d="M2 12h6v18h-6v-18z"></path>
<path d="M8 7c0 1.657-1.343 3-3 3s-3-1.343-3-3c0-1.657 1.343-3 3-3s3 1.343 3 3z"></path>
</symbol>
<symbol id="icon-twitter" viewBox="0 0 32 32" fill="currentColor">
<path d="M32 7.075c-1.175 0.525-2.444 0.875-3.769 1.031 1.356-0.813 2.394-2.1 2.887-3.631-1.269 0.75-2.675 1.3-4.169 1.594-1.2-1.275-2.906-2.069-4.794-2.069-3.625 0-6.563 2.938-6.563 6.563 0 0.512 0.056 1.012 0.169 1.494-5.456-0.275-10.294-2.888-13.531-6.862-0.563 0.969-0.887 2.1-0.887 3.3 0 2.275 1.156 4.287 2.919 5.463-1.075-0.031-2.087-0.331-2.975-0.819 0 0.025 0 0.056 0 0.081 0 3.181 2.263 5.838 5.269 6.437-0.55 0.15-1.131 0.231-1.731 0.231-0.425 0-0.831-0.044-1.237-0.119 0.838 2.606 3.263 4.506 6.131 4.563-2.25 1.762-5.075 2.813-8.156 2.813-0.531 0-1.050-0.031-1.569-0.094 2.913 1.869 6.362 2.95 10.069 2.95 12.075 0 18.681-10.006 18.681-18.681 0-0.287-0.006-0.569-0.019-0.85 1.281-0.919 2.394-2.075 3.275-3.394z"></path>
</symbol>
<symbol id="icon-mail" viewBox="0 0 32 32" fill="currentColor">
<path d="M16 16.951l-15.98-12.951h31.96l-15.98 12.951zM16 20.383l-16-12.967v20.584h32v-20.584l-16 12.967z"></path>
</symbol>
<symbol id="icon-account" viewBox="0 0 32 32" fill="currentColor">
<path d="M16 0c-8.836 0-16 7.164-16 16s7.164 16 16 16 16-7.164 16-16-7.164-16-16-16zM26.337 24.407c-0.348-0.781-1.052-1.321-2.495-1.655-3.057-0.705-5.904-1.324-4.524-3.927 4.193-7.923 1.111-12.159-3.319-12.159-4.517 0-7.525 4.399-3.319 12.159 1.421 2.619-1.531 3.236-4.524 3.927-1.445 0.333-2.144 0.877-2.489 1.661-1.873-2.297-3.001-5.225-3.001-8.413 0-7.352 5.981-13.333 13.333-13.333s13.333 5.981 13.333 13.333c0 3.185-1.127 6.111-2.996 8.407z"></path>
</symbol>
<symbol id="icon-settings" viewBox="0 0 32 32" fill="currentColor">
<path d="M32 18.916v-5.832c-2.864-1.021-3.635-1.069-4.036-2.039-0.404-0.972 0.111-1.559 1.412-4.297l-4.124-4.124c-2.701 1.284-3.317 1.819-4.299 1.412-0.969-0.403-1.024-1.185-2.036-4.036h-5.833c-1.019 2.859-1.067 3.633-2.039 4.036-1.003 0.417-1.604-0.133-4.297-1.412l-4.124 4.124c1.303 2.74 1.816 3.324 1.412 4.299-0.403 0.969-1.175 1.019-4.036 2.037v5.833c2.852 1.013 3.633 1.067 4.036 2.037 0.405 0.979-0.108 1.556-1.412 4.297l4.124 4.124c2.665-1.267 3.293-1.831 4.297-1.412 0.971 0.403 1.019 1.173 2.039 4.036h5.832c1.011-2.841 1.065-3.631 2.049-4.041 0.993-0.411 1.581 0.132 4.287 1.416l4.124-4.124c-1.3-2.733-1.816-3.323-1.412-4.297 0.4-0.968 1.173-1.017 4.036-2.037zM25.5 19.935c-0.769 1.859-0.091 3.277 0.651 4.771l-1.445 1.445c-1.457-0.724-2.881-1.435-4.764-0.653-1.861 0.775-2.387 2.257-2.917 3.836h-2.045c-0.531-1.58-1.055-3.063-2.911-3.833-1.892-0.784-3.343-0.060-4.772 0.651l-1.444-1.445c0.743-1.491 1.421-2.907 0.649-4.773-0.772-1.855-2.255-2.379-3.835-2.909v-2.044c1.58-0.531 3.063-1.055 3.833-2.912 0.771-1.859 0.091-3.279-0.651-4.772l1.445-1.445c1.443 0.717 2.883 1.436 4.773 0.651 1.856-0.769 2.38-2.253 2.911-3.833h2.045c0.531 1.58 1.056 3.063 2.912 3.833 1.892 0.784 3.341 0.060 4.772-0.651l1.445 1.445c-0.741 1.495-1.42 2.916-0.651 4.773 0.769 1.855 2.252 2.379 3.833 2.911v2.045c-1.584 0.531-3.069 1.055-3.836 2.911zM16 12c2.205 0 4 1.795 4 4s-1.795 4-4 4-4-1.795-4-4 1.795-4 4-4zM16 9.333c-3.683 0-6.667 2.984-6.667 6.667s2.984 6.667 6.667 6.667 6.667-2.984 6.667-6.667-2.984-6.667-6.667-6.667z"></path>
</symbol>
</svg>
